# xmcd CD Database Entry
#
# Track frame offsets:
# 150
# 9387
# 32797
# 50512
# 120882
# 136080
# 145947
# 155352
# 171735
# 191597
# 199972
# 254097
# 299375
#
# Disc length: 4415 seconds
#
# Revision: 1
# Processed by: cddbd v1.5.1PL0 Copyright (c) Steve Scherf et al.
# Submitted via: tcd 2.0b
#
DISCID=c0113d0d
DTITLE=George Gershwin - Memorial Concert
DYEAR=1900
DGENRE=
TTITLE0=intro
TTITLE1=Prelude Number 2
TTITLE2=commentary
TTITLE3=An American in Paris
TTITLE4=commentary
TTITLE5=Eulogy - George Jessel
TTITLE6=Swanee sung by Al Jolson
TTITLE7=The Man I Love sung by Edith Swarthout
TTITLE8=They Can't Take That Away From Me
TTITLE9=commentary
TTITLE10=Concerto in F: 1st movement
TTITLE11=Concerto in F: 2nd movement
TTITLE12=Concerto in F: 3rd movement 
EXTD=Los Angeles Philharmonic Orchestra\nHollywood Bowl 1937 Sep 0
EXTD=8\n(Disk One)
EXTT0=
EXTT1=
EXTT2=
EXTT3=
EXTT4=
EXTT5=
EXTT6=
EXTT7=
EXTT8=
EXTT9=
EXTT10=
EXTT11=
EXTT12=
PLAYORDER=
